<?xml version="1.0" encoding="UTF-8" standalone="no"?>
<!DOCTYPE svg PUBLIC "-//W3C//DTD SVG 1.1//EN" "http://www.w3.org/Graphics/SVG/1.1/DTD/svg11.dtd">
<svg width="100%" height="100%" viewBox="0 0 32 32" version="1.1" xmlns="http://www.w3.org/2000/svg" xmlnsXlink="http://www.w3.org/1999/xlink" xmlSpace="preserve" style="fill-rule:evenodd;clip-rule:evenodd;">
    <g id="Layer-1" transform="matrix(1,0,0,1,0,-1020.36)">
        <circle id="path3336" cx="16" cy="1036.36" r="3.717" style="stroke:black;stroke-width:0.57px;"/>
        <path id="circle3338" d="M16.135,1025.9L16.269,1025.9L16.403,1025.91L16.537,1025.91L16.67,1025.92L16.803,1025.93L16.935,1025.94L17.067,1025.95L17.199,1025.97L17.33,1025.98L17.46,1026L17.591,1026.02L17.72,1026.04L17.849,1026.06L17.978,1026.09L18.106,1026.11L18.234,1026.14L18.361,1026.17L18.487,1026.2L18.613,1026.23L18.738,1026.26L18.863,1026.3L18.987,1026.33L19.11,1026.37L19.233,1026.41L19.355,1026.45L19.476,1026.49L19.597,1026.54L19.717,1026.58L19.836,1026.63L19.955,1026.67L20.072,1026.72L20.19,1026.77L20.306,1026.83L20.421,1026.88L20.536,1026.93L20.65,1026.99L20.764,1027.05L20.876,1027.1L20.988,1027.16L21.098,1027.22L21.208,1027.29L21.318,1027.35L21.426,1027.42L21.533,1027.48L21.64,1027.55L21.746,1027.62L21.85,1027.69L21.954,1027.76L22.057,1027.83L22.159,1027.9L22.26,1027.98L22.36,1028.06L22.46,1028.13L22.558,1028.21L22.655,1028.29L22.751,1028.37L22.847,1028.45L22.941,1028.54L23.034,1028.62L23.127,1028.7L23.218,1028.79L23.308,1028.88L23.397,1028.96L23.485,1029.05L23.572,1029.14L23.658,1029.24L23.743,1029.33L23.827,1029.42L23.91,1029.52L23.991,1029.61L24.072,1029.71L24.151,1029.8L24.229,1029.9L24.306,1030L24.382,1030.1L24.457,1030.2L24.531,1030.31L24.603,1030.41L24.674,1030.51L24.744,1030.62L24.812,1030.72L24.88,1030.83L24.946,1030.94L25.011,1031.05L25.075,1031.15L25.137,1031.26L25.198,1031.38L25.258,1031.49L25.316,1031.6L25.374,1031.71L25.429,1031.83L25.484,1031.94L25.537,1032.06L25.589,1032.17L25.639,1032.29L25.688,1032.41L25.736,1032.53L25.782,1032.64L25.827,1032.77L25.87,1032.89L25.912,1033.01L25.953,1033.13L25.992,1033.25L26.029,1033.38L26.066,1033.5L26.1,1033.62L26.133,1033.75L26.165,1033.88L26.195,1034L26.223,1034.13L26.25,1034.26L26.276,1034.38L26.3,1034.51L26.322,1034.64L26.342,1034.77L26.362,1034.9L26.379,1035.03L26.395,1035.16L26.409,1035.3L26.422,1035.43L26.433,1035.56L26.442,1035.69L26.449,1035.83L26.455,1035.96L26.46,1036.09L26.462,1036.23L26.463,1036.36L26.462,1036.5L26.46,1036.63L26.455,1036.77L26.449,1036.9L26.442,1037.03L26.433,1037.16L26.422,1037.3L26.409,1037.43L26.395,1037.56L26.379,1037.69L26.362,1037.82L26.342,1037.95L26.322,1038.08L26.3,1038.21L26.276,1038.34L26.25,1038.47L26.223,1038.6L26.195,1038.72L26.165,1038.85L26.133,1038.97L26.1,1039.1L26.066,1039.22L26.029,1039.35L25.992,1039.47L25.953,1039.6L25.912,1039.72L25.87,1039.84L25.827,1039.96L25.782,1040.08L25.736,1040.2L25.688,1040.32L25.639,1040.43L25.589,1040.55L25.537,1040.67L25.484,1040.78L25.429,1040.9L25.374,1041.01L25.316,1041.13L25.258,1041.24L25.198,1041.35L25.137,1041.46L25.075,1041.57L25.011,1041.68L24.946,1041.79L24.88,1041.89L24.812,1042L24.744,1042.11L24.674,1042.21L24.603,1042.32L24.531,1042.42L24.457,1042.52L24.382,1042.62L24.306,1042.72L24.229,1042.82L24.151,1042.92L24.072,1043.02L23.991,1043.11L23.91,1043.21L23.827,1043.3L23.743,1043.4L23.658,1043.49L23.572,1043.58L23.485,1043.67L23.397,1043.76L23.308,1043.85L23.218,1043.93L23.127,1044.02L23.034,1044.11L22.941,1044.19L22.847,1044.27L22.751,1044.35L22.655,1044.43L22.558,1044.51L22.46,1044.59L22.36,1044.67L22.26,1044.75L22.159,1044.82L22.057,1044.89L21.954,1044.96L21.85,1045.04L21.745,1045.11L21.64,1045.17L21.533,1045.24L21.426,1045.31L21.318,1045.37L21.208,1045.44L21.098,1045.5L20.988,1045.56L20.876,1045.62L20.764,1045.68L20.65,1045.74L20.536,1045.79L20.421,1045.85L20.306,1045.9L20.19,1045.95L20.072,1046L19.955,1046.05L19.836,1046.1L19.717,1046.14L19.597,1046.19L19.476,1046.23L19.355,1046.28L19.233,1046.32L19.11,1046.35L18.987,1046.39L18.863,1046.43L18.738,1046.46L18.613,1046.5L18.487,1046.53L18.361,1046.56L18.234,1046.59L18.106,1046.61L17.978,1046.64L17.849,1046.66L17.72,1046.68L17.591,1046.7L17.46,1046.72L17.33,1046.74L17.199,1046.76L17.067,1046.77L16.935,1046.78L16.803,1046.8L16.67,1046.8L16.537,1046.81L16.403,1046.82L16.269,1046.82L16.135,1046.82L16,1046.83L15.865,1046.82L15.731,1046.82L15.597,1046.82L15.463,1046.81L15.33,1046.8L15.197,1046.8L15.065,1046.78L14.933,1046.77L14.801,1046.76L14.67,1046.74L14.54,1046.72L14.409,1046.7L14.28,1046.68L14.151,1046.66L14.022,1046.64L13.894,1046.61L13.766,1046.59L13.639,1046.56L13.513,1046.53L13.387,1046.5L13.262,1046.46L13.137,1046.43L13.013,1046.39L12.89,1046.35L12.767,1046.32L12.645,1046.28L12.524,1046.23L12.403,1046.19L12.283,1046.14L12.164,1046.1L12.045,1046.05L11.928,1046L11.81,1045.95L11.694,1045.9L11.579,1045.85L11.464,1045.79L11.35,1045.74L11.236,1045.68L11.124,1045.62L11.012,1045.56L10.902,1045.5L10.792,1045.44L10.682,1045.37L10.574,1045.31L10.467,1045.24L10.36,1045.17L10.255,1045.11L10.15,1045.04L10.046,1044.96L9.943,1044.89L9.841,1044.82L9.74,1044.75L9.64,1044.67L9.54,1044.59L9.442,1044.51L9.345,1044.43L9.249,1044.35L9.153,1044.27L9.059,1044.19L8.966,1044.11L8.873,1044.02L8.782,1043.93L8.692,1043.85L8.603,1043.76L8.515,1043.67L8.428,1043.58L8.342,1043.49L8.257,1043.4L8.173,1043.3L8.09,1043.21L8.009,1043.11L7.928,1043.02L7.849,1042.92L7.771,1042.82L7.694,1042.72L7.618,1042.62L7.543,1042.52L7.469,1042.42L7.397,1042.32L7.326,1042.21L7.256,1042.11L7.188,1042L7.12,1041.89L7.054,1041.79L6.989,1041.68L6.925,1041.57L6.863,1041.46L6.802,1041.35L6.742,1041.24L6.684,1041.13L6.626,1041.01L6.571,1040.9L6.516,1040.78L6.463,1040.67L6.411,1040.55L6.361,1040.43L6.312,1040.32L6.264,1040.2L6.218,1040.08L6.173,1039.96L6.13,1039.84L6.088,1039.72L6.047,1039.6L6.008,1039.47L5.971,1039.35L5.934,1039.22L5.9,1039.1L5.867,1038.97L5.835,1038.85L5.805,1038.72L5.777,1038.6L5.75,1038.47L5.724,1038.34L5.7,1038.21L5.678,1038.08L5.658,1037.95L5.638,1037.82L5.621,1037.69L5.605,1037.56L5.591,1037.43L5.578,1037.3L5.567,1037.16L5.558,1037.03L5.551,1036.9L5.545,1036.77L5.54,1036.63L5.538,1036.5L5.537,1036.36L5.538,1036.23L5.54,1036.09L5.545,1035.96L5.551,1035.83L5.558,1035.69L5.567,1035.56L5.578,1035.43L5.591,1035.3L5.605,1035.16L5.621,1035.03L5.638,1034.9L5.658,1034.77L5.678,1034.64L5.7,1034.51L5.724,1034.38L5.75,1034.26L5.777,1034.13L5.805,1034L5.835,1033.88L5.867,1033.75L5.9,1033.62L5.934,1033.5L5.971,1033.38L6.008,1033.25L6.047,1033.13L6.088,1033.01L6.13,1032.89L6.173,1032.77L6.218,1032.64L6.264,1032.53L6.312,1032.41L6.361,1032.29L6.411,1032.17L6.463,1032.06L6.516,1031.94L6.571,1031.83L6.626,1031.71L6.684,1031.6L6.742,1031.49L6.802,1031.38L6.863,1031.26L6.925,1031.15L6.989,1031.05L7.054,1030.94L7.12,1030.83L7.188,1030.72L7.256,1030.62L7.326,1030.51L7.397,1030.41L7.469,1030.31L7.543,1030.2L7.618,1030.1L7.694,1030L7.771,1029.9L7.849,1029.8L7.928,1029.71L8.009,1029.61L8.09,1029.52L8.173,1029.42L8.257,1029.33L8.342,1029.24L8.428,1029.14L8.515,1029.05L8.603,1028.96L8.692,1028.88L8.782,1028.79L8.873,1028.7L8.966,1028.62L9.059,1028.54L9.153,1028.45L9.249,1028.37L9.345,1028.29L9.442,1028.21L9.54,1028.13L9.64,1028.06L9.74,1027.98L9.841,1027.9L9.943,1027.83L10.046,1027.76L10.15,1027.69L10.255,1027.62L10.36,1027.55L10.467,1027.48L10.574,1027.42L10.682,1027.35L10.792,1027.29L10.902,1027.22L11.012,1027.16L11.124,1027.1L11.236,1027.05L11.35,1026.99L11.464,1026.93L11.579,1026.88L11.694,1026.83L11.81,1026.77L11.928,1026.72L12.045,1026.67L12.164,1026.63L12.283,1026.58L12.403,1026.54L12.524,1026.49L12.645,1026.45L12.767,1026.41L12.89,1026.37L13.013,1026.33L13.137,1026.3L13.262,1026.26L13.387,1026.23L13.513,1026.2L13.639,1026.17L13.766,1026.14L13.894,1026.11L14.022,1026.09L14.151,1026.06L14.28,1026.04L14.409,1026.02L14.54,1026L14.67,1025.98L14.801,1025.97L14.933,1025.95L15.065,1025.94L15.197,1025.93L15.33,1025.92L15.463,1025.91L15.597,1025.91L15.731,1025.9L15.865,1025.9L16,1025.9L16.135,1025.9ZM15.916,1029.9L15.832,1029.9L15.749,1029.9L15.666,1029.91L15.584,1029.91L15.501,1029.92L15.419,1029.92L15.338,1029.93L15.256,1029.94L15.175,1029.95L15.095,1029.96L15.014,1029.97L14.934,1029.99L14.855,1030L14.776,1030.02L14.697,1030.03L14.618,1030.05L14.54,1030.07L14.462,1030.08L14.385,1030.1L14.308,1030.12L14.231,1030.14L14.155,1030.17L14.079,1030.19L14.004,1030.21L13.928,1030.24L13.854,1030.26L13.78,1030.29L13.706,1030.32L13.632,1030.35L13.559,1030.38L13.487,1030.41L13.415,1030.44L13.343,1030.47L13.272,1030.5L13.201,1030.54L13.131,1030.57L13.061,1030.61L12.991,1030.64L12.923,1030.68L12.854,1030.72L12.786,1030.76L12.719,1030.79L12.652,1030.83L12.586,1030.88L12.52,1030.92L12.454,1030.96L12.39,1031L12.325,1031.05L12.262,1031.09L12.198,1031.14L12.136,1031.18L12.074,1031.23L12.012,1031.28L11.951,1031.33L11.891,1031.38L11.832,1031.42L11.772,1031.48L11.714,1031.53L11.656,1031.58L11.599,1031.63L11.542,1031.68L11.486,1031.74L11.431,1031.79L11.377,1031.85L11.323,1031.9L11.269,1031.96L11.217,1032.02L11.165,1032.08L11.113,1032.13L11.063,1032.19L11.013,1032.25L10.964,1032.31L10.915,1032.38L10.868,1032.44L10.821,1032.5L10.775,1032.56L10.729,1032.62L10.684,1032.69L10.64,1032.75L10.597,1032.82L10.555,1032.88L10.513,1032.95L10.472,1033.01L10.432,1033.08L10.393,1033.15L10.354,1033.22L10.316,1033.29L10.279,1033.35L10.243,1033.42L10.208,1033.49L10.174,1033.56L10.14,1033.63L10.107,1033.7L10.075,1033.78L10.044,1033.85L10.014,1033.92L9.985,1033.99L9.956,1034.07L9.929,1034.14L9.902,1034.22L9.876,1034.29L9.851,1034.37L9.827,1034.44L9.804,1034.52L9.782,1034.59L9.761,1034.67L9.74,1034.75L9.721,1034.82L9.703,1034.9L9.685,1034.98L9.668,1035.06L9.653,1035.14L9.638,1035.22L9.624,1035.3L9.612,1035.38L9.6,1035.46L9.589,1035.54L9.579,1035.62L9.571,1035.7L9.563,1035.78L9.556,1035.86L9.55,1035.95L9.545,1036.03L9.542,1036.11L9.539,1036.19L9.538,1036.28L9.537,1036.36L9.538,1036.45L9.539,1036.53L9.542,1036.61L9.545,1036.7L9.55,1036.78L9.556,1036.86L9.563,1036.94L9.571,1037.03L9.579,1037.11L9.589,1037.19L9.6,1037.27L9.612,1037.35L9.624,1037.43L9.638,1037.51L9.653,1037.59L9.668,1037.67L9.685,1037.74L9.703,1037.82L9.721,1037.9L9.74,1037.98L9.761,1038.05L9.782,1038.13L9.804,1038.21L9.827,1038.28L9.851,1038.36L9.876,1038.43L9.902,1038.51L9.929,1038.58L9.956,1038.66L9.985,1038.73L10.014,1038.8L10.044,1038.88L10.075,1038.95L10.107,1039.02L10.14,1039.09L10.174,1039.16L10.208,1039.23L10.243,1039.3L10.279,1039.37L10.316,1039.44L10.354,1039.51L10.393,1039.58L10.432,1039.64L10.472,1039.71L10.513,1039.78L10.555,1039.84L10.597,1039.91L10.64,1039.97L10.684,1040.04L10.729,1040.1L10.775,1040.16L10.821,1040.23L10.868,1040.29L10.915,1040.35L10.964,1040.41L11.013,1040.47L11.063,1040.53L11.113,1040.59L11.165,1040.65L11.217,1040.71L11.269,1040.76L11.323,1040.82L11.377,1040.88L11.431,1040.93L11.486,1040.99L11.542,1041.04L11.599,1041.09L11.656,1041.15L11.714,1041.2L11.772,1041.25L11.832,1041.3L11.891,1041.35L11.951,1041.4L12.012,1041.45L12.074,1041.49L12.136,1041.54L12.198,1041.59L12.262,1041.63L12.325,1041.68L12.39,1041.72L12.454,1041.77L12.52,1041.81L12.586,1041.85L12.652,1041.89L12.719,1041.93L12.786,1041.97L12.854,1042.01L12.923,1042.05L12.991,1042.08L13.061,1042.12L13.131,1042.15L13.201,1042.19L13.272,1042.22L13.343,1042.26L13.415,1042.29L13.487,1042.32L13.559,1042.35L13.632,1042.38L13.706,1042.41L13.78,1042.43L13.854,1042.46L13.928,1042.49L14.004,1042.51L14.079,1042.54L14.155,1042.56L14.231,1042.58L14.308,1042.6L14.385,1042.62L14.462,1042.64L14.54,1042.66L14.618,1042.68L14.697,1042.69L14.776,1042.71L14.855,1042.72L14.934,1042.74L15.014,1042.75L15.095,1042.76L15.175,1042.77L15.256,1042.78L15.338,1042.79L15.419,1042.8L15.501,1042.81L15.584,1042.81L15.666,1042.82L15.749,1042.82L15.832,1042.82L15.916,1042.83L16,1042.83L16.084,1042.83L16.168,1042.82L16.251,1042.82L16.334,1042.82L16.416,1042.81L16.499,1042.81L16.581,1042.8L16.662,1042.79L16.744,1042.78L16.825,1042.77L16.905,1042.76L16.986,1042.75L17.066,1042.74L17.145,1042.72L17.224,1042.71L17.303,1042.69L17.382,1042.68L17.46,1042.66L17.538,1042.64L17.615,1042.62L17.692,1042.6L17.769,1042.58L17.845,1042.56L17.921,1042.54L17.996,1042.51L18.072,1042.49L18.146,1042.46L18.22,1042.43L18.294,1042.41L18.368,1042.38L18.441,1042.35L18.513,1042.32L18.585,1042.29L18.657,1042.26L18.728,1042.22L18.799,1042.19L18.869,1042.15L18.939,1042.12L19.009,1042.08L19.077,1042.05L19.146,1042.01L19.214,1041.97L19.281,1041.93L19.348,1041.89L19.414,1041.85L19.48,1041.81L19.546,1041.77L19.61,1041.72L19.675,1041.68L19.738,1041.63L19.802,1041.59L19.864,1041.54L19.926,1041.49L19.988,1041.45L20.049,1041.4L20.109,1041.35L20.168,1041.3L20.228,1041.25L20.286,1041.2L20.344,1041.15L20.401,1041.09L20.458,1041.04L20.514,1040.99L20.569,1040.93L20.623,1040.88L20.677,1040.82L20.731,1040.76L20.783,1040.71L20.835,1040.65L20.887,1040.59L20.937,1040.53L20.987,1040.47L21.036,1040.41L21.085,1040.35L21.132,1040.29L21.179,1040.23L21.226,1040.16L21.271,1040.1L21.316,1040.04L21.36,1039.97L21.403,1039.91L21.445,1039.84L21.487,1039.78L21.528,1039.71L21.568,1039.64L21.607,1039.58L21.646,1039.51L21.684,1039.44L21.721,1039.37L21.757,1039.3L21.792,1039.23L21.826,1039.16L21.86,1039.09L21.893,1039.02L21.925,1038.95L21.956,1038.88L21.986,1038.8L22.015,1038.73L22.044,1038.66L22.071,1038.58L22.098,1038.51L22.124,1038.43L22.149,1038.36L22.173,1038.28L22.196,1038.21L22.218,1038.13L22.239,1038.05L22.26,1037.98L22.279,1037.9L22.297,1037.82L22.315,1037.74L22.332,1037.67L22.347,1037.59L22.362,1037.51L22.376,1037.43L22.388,1037.35L22.4,1037.27L22.411,1037.19L22.421,1037.11L22.429,1037.03L22.437,1036.94L22.444,1036.86L22.45,1036.78L22.455,1036.7L22.458,1036.61L22.461,1036.53L22.462,1036.45L22.463,1036.36L22.462,1036.28L22.461,1036.19L22.458,1036.11L22.455,1036.03L22.45,1035.95L22.444,1035.86L22.437,1035.78L22.429,1035.7L22.421,1035.62L22.411,1035.54L22.4,1035.46L22.388,1035.38L22.376,1035.3L22.362,1035.22L22.347,1035.14L22.332,1035.06L22.315,1034.98L22.297,1034.9L22.279,1034.82L22.26,1034.75L22.239,1034.67L22.218,1034.59L22.196,1034.52L22.173,1034.44L22.149,1034.37L22.124,1034.29L22.098,1034.22L22.071,1034.14L22.044,1034.07L22.015,1033.99L21.986,1033.92L21.956,1033.85L21.925,1033.78L21.893,1033.7L21.86,1033.63L21.826,1033.56L21.792,1033.49L21.757,1033.42L21.721,1033.35L21.684,1033.29L21.646,1033.22L21.607,1033.15L21.568,1033.08L21.528,1033.01L21.487,1032.95L21.445,1032.88L21.403,1032.82L21.36,1032.75L21.316,1032.69L21.271,1032.62L21.226,1032.56L21.179,1032.5L21.132,1032.44L21.085,1032.38L21.036,1032.31L20.987,1032.25L20.937,1032.19L20.887,1032.13L20.835,1032.08L20.783,1032.02L20.731,1031.96L20.677,1031.9L20.623,1031.85L20.569,1031.79L20.514,1031.74L20.458,1031.68L20.401,1031.63L20.344,1031.58L20.286,1031.53L20.228,1031.48L20.168,1031.42L20.109,1031.38L20.049,1031.33L19.988,1031.28L19.926,1031.23L19.864,1031.18L19.802,1031.14L19.738,1031.09L19.675,1031.05L19.61,1031L19.546,1030.96L19.48,1030.92L19.414,1030.88L19.348,1030.83L19.281,1030.79L19.214,1030.76L19.146,1030.72L19.077,1030.68L19.009,1030.64L18.939,1030.61L18.869,1030.57L18.799,1030.54L18.728,1030.5L18.657,1030.47L18.585,1030.44L18.513,1030.41L18.441,1030.38L18.368,1030.35L18.294,1030.32L18.22,1030.29L18.146,1030.26L18.072,1030.24L17.996,1030.21L17.921,1030.19L17.845,1030.17L17.769,1030.14L17.692,1030.12L17.615,1030.1L17.538,1030.08L17.46,1030.07L17.382,1030.05L17.303,1030.03L17.224,1030.02L17.145,1030L17.066,1029.99L16.986,1029.97L16.905,1029.96L16.825,1029.95L16.744,1029.94L16.662,1029.93L16.581,1029.92L16.499,1029.92L16.416,1029.91L16.334,1029.91L16.251,1029.9L16.168,1029.9L16.084,1029.9L16,1029.9L15.916,1029.9Z" style="fill:rgb(255,200,0);"/>
        <g id="path4140" transform="matrix(1.00679,0,0,1.15373,12.9227,-154.363)">
            <path d="M5.736,1024.64L3.213,1024.64L0.691,1024.64L1.952,1022.45L3.213,1020.27L5.736,1024.64Z" style="fill:rgb(255,200,0);fill-rule:nonzero;stroke:rgb(255,200,0);stroke-width:1.86px;"/>
        </g>
    </g>
</svg>
